<svg width="13" height="12" viewBox="0 0 13 12" fill="none" xmlns="http://www.w3.org/2000/svg">
<g clip-path="url(#clip0_63_498)">
<path d="M10.5625 1H9.75V0.25C9.75 0.112 9.62867 0 9.47917 0C9.32967 0 9.20833 0.112 9.20833 0.25V1H3.79167V0.25C3.79167 0.112 3.67033 0 3.52083 0C3.37133 0 3.25 0.112 3.25 0.25V1H2.4375C1.09363 1 0 2.0095 0 3.25V9.75C0 10.9905 1.09363 12 2.4375 12H10.5625C11.9064 12 13 10.9905 13 9.75V3.25C13 2.0095 11.9064 1 10.5625 1ZM2.4375 1.5H10.5625C11.6079 1.5 12.4583 2.285 12.4583 3.25V4H0.541667V3.25C0.541667 2.285 1.39208 1.5 2.4375 1.5ZM10.5625 11.5H2.4375C1.39208 11.5 0.541667 10.715 0.541667 9.75V4.5H12.4583V9.75C12.4583 10.715 11.6079 11.5 10.5625 11.5ZM8.66667 7.75C8.66667 7.888 8.54533 8 8.39583 8H4.60417C4.45467 8 4.33333 7.888 4.33333 7.75C4.33333 7.612 4.45467 7.5 4.60417 7.5H8.39583C8.54533 7.5 8.66667 7.612 8.66667 7.75Z" fill="#0D3F34"/>
</g>
<defs>
<clipPath id="clip0_63_498">
<rect width="13" height="12" fill="white"/>
</clipPath>
</defs>
</svg>
