<svg width="24" height="24" viewBox="0 0 24 24" fill="none" xmlns="http://www.w3.org/2000/svg">
<path d="M10.4598 16.0303H11.2098V16.0302L10.4598 16.0303ZM1.99988 16.0303L1.24988 16.0302V16.0303H1.99988ZM21.9999 16.0303H22.7499V16.0302L21.9999 16.0303ZM16.08 22L16.0799 22.75H16.08V22ZM13.5399 16.0303L12.7899 16.0302V16.0303H13.5399ZM16.08 13.4697V12.7197H16.0799L16.08 13.4697ZM10.4598 4.56055H11.2098V4.56042L10.4598 4.56055ZM1.99988 4.56055L1.24988 4.56042V4.56055H1.99988ZM21.9999 4.56055H22.7499V4.56042L21.9999 4.56055ZM16.08 10.5303L16.0799 11.2803H16.08V10.5303ZM13.5399 4.56055L12.7899 4.56042V4.56055H13.5399ZM16.08 2V1.25H16.0799L16.08 2ZM7.9198 13.4697V14.2197C8.90939 14.2197 9.70968 15.0186 9.70984 16.0304L10.4598 16.0303L11.2098 16.0302C11.2095 14.2023 9.74993 12.7197 7.9198 12.7197V13.4697ZM10.4598 16.0303H9.70984V19.4395H10.4598H11.2098V16.0303H10.4598ZM10.4598 19.4395H9.70984C9.70984 20.4431 8.90775 21.25 7.9198 21.25V22V22.75C9.75185 22.75 11.2098 21.2558 11.2098 19.4395H10.4598ZM7.9198 22V21.25H4.53992V22V22.75H7.9198V22ZM4.53992 22V21.25C3.56005 21.25 2.74988 20.4412 2.74988 19.4395H1.99988H1.24988C1.24988 21.2577 2.71978 22.75 4.53992 22.75V22ZM1.99988 19.4395H2.74988V16.0303H1.99988H1.24988V19.4395H1.99988ZM1.99988 16.0303L2.74988 16.0304C2.75004 15.0206 3.55841 14.2197 4.53992 14.2197V13.4697V12.7197C2.7217 12.7197 1.25017 14.2004 1.24988 16.0302L1.99988 16.0303ZM4.53992 13.4697V14.2197H7.9198V13.4697V12.7197H4.53992V13.4697ZM19.4598 13.4697V14.2197C20.4413 14.2197 21.2497 15.0206 21.2499 16.0304L21.9999 16.0303L22.7499 16.0302C22.7496 14.2004 21.2781 12.7197 19.4598 12.7197V13.4697ZM21.9999 16.0303H21.2499V19.4395H21.9999H22.7499V16.0303H21.9999ZM21.9999 19.4395H21.2499C21.2499 20.4412 20.4397 21.25 19.4598 21.25V22V22.75C21.28 22.75 22.7499 21.2577 22.7499 19.4395H21.9999ZM19.4598 22V21.25H16.08V22V22.75H19.4598V22ZM16.08 22L16.08 21.25C15.092 21.25 14.2899 20.4431 14.2899 19.4395H13.5399H12.7899C12.7899 21.2558 14.2479 22.75 16.0799 22.75L16.08 22ZM13.5399 19.4395H14.2899V16.0303H13.5399H12.7899V19.4395H13.5399ZM13.5399 16.0303L14.2899 16.0304C14.2901 15.0186 15.0904 14.2197 16.08 14.2197L16.08 13.4697L16.0799 12.7197C14.2498 12.7197 12.7902 14.2023 12.7899 16.0302L13.5399 16.0303ZM16.08 13.4697V14.2197H19.4598V13.4697V12.7197H16.08V13.4697ZM7.9198 2V2.75C8.90766 2.75 9.70967 3.55618 9.70984 4.56068L10.4598 4.56055L11.2098 4.56042C11.2095 2.74333 9.75164 1.25 7.9198 1.25V2ZM10.4598 4.56055H9.70984V7.96973H10.4598H11.2098V4.56055H10.4598ZM10.4598 7.96973H9.70984C9.70984 8.98148 8.90965 9.78027 7.9198 9.78027V10.5303V11.2803C9.74995 11.2803 11.2098 9.79798 11.2098 7.96973H10.4598ZM7.9198 10.5303V9.78027H4.53992V10.5303V11.2803H7.9198V10.5303ZM4.53992 10.5303V9.78027C3.55815 9.78027 2.74988 8.97955 2.74988 7.96973H1.99988H1.24988C1.24988 9.79991 2.72168 11.2803 4.53992 11.2803V10.5303ZM1.99988 7.96973H2.74988V4.56055H1.99988H1.24988V7.96973H1.99988ZM1.99988 4.56055L2.74988 4.56068C2.75005 3.55811 3.56014 2.75 4.53992 2.75V2V1.25C2.71999 1.25 1.25019 2.7414 1.24988 4.56042L1.99988 4.56055ZM4.53992 2V2.75H7.9198V2V1.25H4.53992V2ZM19.4598 2V2.75C20.4396 2.75 21.2497 3.55811 21.2499 4.56068L21.9999 4.56055L22.7499 4.56042C22.7496 2.7414 21.2798 1.25 19.4598 1.25V2ZM21.9999 4.56055H21.2499V7.96973H21.9999H22.7499V4.56055H21.9999ZM21.9999 7.96973H21.2499C21.2499 8.97955 20.4416 9.78027 19.4598 9.78027V10.5303V11.2803C21.2781 11.2803 22.7499 9.79991 22.7499 7.96973H21.9999ZM19.4598 10.5303V9.78027H16.08V10.5303V11.2803H19.4598V10.5303ZM16.08 10.5303L16.08 9.78027C15.0901 9.78027 14.2899 8.98146 14.2899 7.96973H13.5399H12.7899C12.7899 9.79798 14.2498 11.2803 16.0799 11.2803L16.08 10.5303ZM13.5399 7.96973H14.2899V4.56055H13.5399H12.7899V7.96973H13.5399ZM13.5399 4.56055L14.2899 4.56068C14.2901 3.55619 15.0921 2.75001 16.08 2.75L16.08 2L16.0799 1.25C14.2481 1.25002 12.7902 2.74333 12.7899 4.56042L13.5399 4.56055ZM16.08 2V2.75H19.4598V2V1.25H16.08V2Z" fill="#BDBDBD"/>
</svg>
