<svg width="20" height="20" viewBox="0 0 20 20" fill="none" xmlns="http://www.w3.org/2000/svg">
<g clip-path="url(#clip0_128_167)">
<path d="M16.6241 4.61332L13.7208 1.70832C13.1802 1.1651 12.5373 0.734431 11.8293 0.441205C11.1213 0.147978 10.3621 -0.00198375 9.59579 -1.13103e-05H5.83329C4.72863 0.0013119 3.66959 0.440724 2.88848 1.22184C2.10736 2.00295 1.66795 3.06199 1.66663 4.16666V15.8333C1.66795 16.938 2.10736 17.997 2.88848 18.7781C3.66959 19.5593 4.72863 19.9987 5.83329 20H14.1666C15.2713 19.9987 16.3303 19.5593 17.1114 18.7781C17.8926 17.997 18.332 16.938 18.3333 15.8333V8.73749C18.3354 7.97117 18.1854 7.21206 17.892 6.50413C17.5986 5.7962 17.1677 5.15352 16.6241 4.61332ZM15.4458 5.79166C15.7003 6.05344 15.9191 6.34765 16.0966 6.66666H12.5C12.2789 6.66666 12.067 6.57886 11.9107 6.42258C11.7544 6.2663 11.6666 6.05434 11.6666 5.83332V2.23666C11.9857 2.41409 12.2802 2.63262 12.5425 2.88666L15.4458 5.79166ZM16.6666 15.8333C16.6666 16.4964 16.4032 17.1322 15.9344 17.6011C15.4656 18.0699 14.8297 18.3333 14.1666 18.3333H5.83329C5.17025 18.3333 4.53437 18.0699 4.06553 17.6011C3.59668 17.1322 3.33329 16.4964 3.33329 15.8333V4.16666C3.33329 3.50361 3.59668 2.86773 4.06553 2.39889C4.53437 1.93005 5.17025 1.66666 5.83329 1.66666H9.59579C9.73246 1.66666 9.86496 1.69332 9.99996 1.70582V5.83332C9.99996 6.49636 10.2634 7.13225 10.7322 7.60109C11.201 8.06993 11.8369 8.33332 12.5 8.33332H16.6275C16.64 8.46832 16.6666 8.59999 16.6666 8.73749V15.8333Z" fill="#BDBDBD"/>
</g>
<defs>
<clipPath id="clip0_128_167">
<rect width="20" height="20" fill="white"/>
</clipPath>
</defs>
</svg>
